<?xml version="1.0" encoding="UTF-8" standalone="no"?>
<!-- Created with Inkscape (http://www.inkscape.org/) -->

<svg
   xmlns:dc="http://purl.org/dc/elements/1.1/"
   xmlns:cc="http://creativecommons.org/ns#"
   xmlns:rdf="http://www.w3.org/1999/02/22-rdf-syntax-ns#"
   xmlns:svg="http://www.w3.org/2000/svg"
   xmlns="http://www.w3.org/2000/svg"
   xmlns:xlink="http://www.w3.org/1999/xlink"
   xmlns:sodipodi="http://sodipodi.sourceforge.net/DTD/sodipodi-0.dtd"
   xmlns:inkscape="http://www.inkscape.org/namespaces/inkscape"
   version="1.0"
   width="300"
   height="300"
   id="svg6352"
   inkscape:version="0.48.2 r9819"
   sodipodi:docname="x64lab.svg">
  <title
     id="title3115">x64lab loago</title>
  <metadata
     id="metadata3089">
    <rdf:RDF>
      <cc:Work
         rdf:about="">
        <dc:format>image/svg+xml</dc:format>
        <dc:type
           rdf:resource="http://purl.org/dc/dcmitype/StillImage" />
        <dc:title>x64lab logo</dc:title>
        <dc:creator>
          <cc:Agent>
            <dc:title>mrk</dc:title>
          </cc:Agent>
        </dc:creator>
        <dc:subject>
          <rdf:Bag>
            <rdf:li>x64lab</rdf:li>
            <rdf:li>assembly</rdf:li>
            <rdf:li>ide</rdf:li>
          </rdf:Bag>
        </dc:subject>
        <dc:description>spinning top</dc:description>
        <dc:date>2012-09-29</dc:date>
        <cc:license
           rdf:resource="http://creativecommons.org/licenses/by-nc-sa/3.0/" />
        <dc:source>http://x64lab.googlecode.com/hg/develop/ide/x64lab.svg</dc:source>
      </cc:Work>
      <cc:License
         rdf:about="http://creativecommons.org/licenses/by-nc-sa/3.0/">
        <cc:permits
           rdf:resource="http://creativecommons.org/ns#Reproduction" />
        <cc:permits
           rdf:resource="http://creativecommons.org/ns#Distribution" />
        <cc:requires
           rdf:resource="http://creativecommons.org/ns#Notice" />
        <cc:requires
           rdf:resource="http://creativecommons.org/ns#Attribution" />
        <cc:prohibits
           rdf:resource="http://creativecommons.org/ns#CommercialUse" />
        <cc:permits
           rdf:resource="http://creativecommons.org/ns#DerivativeWorks" />
        <cc:requires
           rdf:resource="http://creativecommons.org/ns#ShareAlike" />
      </cc:License>
    </rdf:RDF>
  </metadata>
  <sodipodi:namedview
     pagecolor="#ffffff"
     bordercolor="#666666"
     borderopacity="1"
     objecttolerance="10"
     gridtolerance="10"
     guidetolerance="10"
     inkscape:pageopacity="0"
     inkscape:pageshadow="2"
     inkscape:window-width="1680"
     inkscape:window-height="984"
     id="namedview3087"
     showgrid="false"
     inkscape:zoom="2.75"
     inkscape:cx="93.818182"
     inkscape:cy="150"
     inkscape:window-x="-8"
     inkscape:window-y="-8"
     inkscape:window-maximized="1"
     inkscape:current-layer="layer1" />
  <defs
     id="defs6354">
    <linearGradient
       inkscape:collect="always"
       id="linearGradient3026">
      <stop
         style="stop-color:#e9c6af;stop-opacity:1;"
         offset="0"
         id="stop3028" />
      <stop
         style="stop-color:#784421;stop-opacity:1"
         offset="1"
         id="stop3030" />
    </linearGradient>
    <marker
       refX="0"
       refY="0"
       orient="auto"
       style="overflow:visible"
       id="Arrow2Mend">
      <path
         d="M 8.7185878,4.0337352 L -2.2072895,0.016013256 L 8.7185884,-4.0017078 C 6.97309,-1.6296469 6.9831476,1.6157441 8.7185878,4.0337352 z "
         transform="scale(-0.6,-0.6)"
         style="font-size:12px;fill-rule:evenodd;stroke-width:0.625;stroke-linejoin:round"
         id="path7490" />
    </marker>
    <marker
       refX="0"
       refY="0"
       orient="auto"
       style="overflow:visible"
       id="Arrow1Lstart">
      <path
         d="M 0,0 L 5,-5 L -12.5,0 L 5,5 L 0,0 z "
         transform="matrix(0.8,0,0,0.8,10,0)"
         style="fill-rule:evenodd;stroke:#000000;stroke-width:1pt;marker-start:none"
         id="path7463" />
    </marker>
    <marker
       refX="0"
       refY="0"
       orient="auto"
       style="overflow:visible"
       id="Arrow2Sstart">
      <path
         d="M 8.7185878,4.0337352 L -2.2072895,0.016013256 L 8.7185884,-4.0017078 C 6.97309,-1.6296469 6.9831476,1.6157441 8.7185878,4.0337352 z "
         transform="matrix(0.3,0,0,0.3,-0.69,0)"
         style="font-size:12px;fill-rule:evenodd;stroke-width:0.625;stroke-linejoin:round"
         id="path7493" />
    </marker>
    <marker
       refX="0"
       refY="0"
       orient="auto"
       style="overflow:visible"
       id="Arrow2Send">
      <path
         d="M 8.7185878,4.0337352 L -2.2072895,0.016013256 L 8.7185884,-4.0017078 C 6.97309,-1.6296469 6.9831476,1.6157441 8.7185878,4.0337352 z "
         transform="matrix(-0.3,0,0,-0.3,0.69,0)"
         style="font-size:12px;fill-rule:evenodd;stroke-width:0.625;stroke-linejoin:round"
         id="path7496" />
    </marker>
    <marker
       refX="0"
       refY="0"
       orient="auto"
       style="overflow:visible"
       id="Arrow1Lend">
      <path
         d="M 0,0 L 5,-5 L -12.5,0 L 5,5 L 0,0 z "
         transform="matrix(-0.8,0,0,-0.8,-10,0)"
         style="fill-rule:evenodd;stroke:#000000;stroke-width:1pt;marker-start:none"
         id="path7466" />
    </marker>
    <marker
       refX="0"
       refY="0"
       orient="auto"
       style="overflow:visible"
       id="Arrow2Lend">
      <path
         d="M 8.7185878,4.0337352 L -2.2072895,0.016013256 L 8.7185884,-4.0017078 C 6.97309,-1.6296469 6.9831476,1.6157441 8.7185878,4.0337352 z "
         transform="matrix(-1.1,0,0,-1.1,-1.1,0)"
         style="font-size:12px;fill-rule:evenodd;stroke-width:0.625;stroke-linejoin:round"
         id="path7484" />
    </marker>
    <radialGradient
       inkscape:collect="always"
       xlink:href="#linearGradient3026"
       id="radialGradient3032"
       cx="196.97462"
       cy="236.75946"
       fx="196.97462"
       fy="236.75946"
       r="127.88002"
       gradientTransform="matrix(-1.2085191,0.55165353,-0.39329824,-0.86152647,574.07376,209.4946)"
       gradientUnits="userSpaceOnUse" />
  </defs>
  <g
     id="layer1">
    <path
       d="M 15.862097,137.51284 253.12464,56.521924 C 309.24955,115.57528 203.55175,263.02587 223.54137,297.4264 204.28073,249.9043 3.285272,229.21532 15.862097,137.51284 z"
       style="fill:url(#radialGradient3032);fill-opacity:1;fill-rule:evenodd;stroke:#000000;stroke-width:1.31411016000000000px;stroke-linecap:butt;stroke-linejoin:miter;stroke-opacity:1"
       id="path7398"
       inkscape:connector-curvature="0"
       sodipodi:nodetypes="cccc" />
    <path
       d="M 254.38477,57.161842 C 259.98436,78.956052 211.23876,118.17235 145.12855,142.45269 79.018331,166.73303 19.36107,166.56385 13.761459,144.76964 8.1618531,122.97544 58.729895,87.768522 124.84013,63.488165 190.95032,39.207818 248.78515,35.367639 254.38477,57.161842 z"
       style="fill:#ffffff;fill-opacity:1;fill-rule:evenodd;stroke:#000000;stroke-width:1.52708769;stroke-miterlimit:4;stroke-opacity:1"
       id="path7381"
       inkscape:connector-curvature="0"
       sodipodi:nodetypes="sssss" />
    <path
       d="M 248.63428,46.996026 C 254.20876,68.456981 205.31894,105.27907 139.5053,129.18814 73.691613,153.09721 15.753353,155.08411 10.178863,133.62316 4.6043716,112.1622 53.494172,75.340135 119.30786,51.431036 185.12153,27.521958 243.05978,25.535065 248.63428,46.996026 z"
       style="fill:#ffff00;fill-opacity:1;fill-rule:evenodd;stroke:#000000;stroke-width:1.51196516;stroke-miterlimit:4;stroke-opacity:1"
       id="path7381-1"
       inkscape:connector-curvature="0" />
    <path
       d="M 238.58614,35.807437 C 243.98667,56.295642 197.032,91.342346 133.77669,114.03668 70.521376,136.731 14.800639,138.52147 9.4001153,118.03327 3.9995838,97.545071 50.954244,62.498371 114.20957,39.804026 177.46489,17.109711 233.18562,15.319233 238.58614,35.807437 z"
       style="fill:#ff0000;fill-opacity:1;fill-rule:evenodd;stroke:#000000;stroke-width:1.44844043;stroke-miterlimit:4;stroke-opacity:1"
       id="path7381-9"
       inkscape:connector-curvature="0" />
    <path
       d="M 225.90058,28.390815 C 230.98937,47.208511 187.40425,79.223904 128.61242,99.853751 69.820566,120.48356 17.975383,121.9543 12.886577,103.13659 7.7977799,84.318898 51.38289,52.303503 110.17473,31.673663 168.96657,11.043837 220.81177,9.5731158 225.90058,28.390815 z"
       style="fill:#ffffff;fill-opacity:1;fill-rule:evenodd;stroke:#000000;stroke-width:1.33846104;stroke-miterlimit:4;stroke-opacity:1"
       id="path7381-5"
       inkscape:connector-curvature="0" />
    <path
       d="M 213.79995,23.351718 C 218.43521,40.46805 178.76733,69.579962 125.25564,88.33367 71.743923,107.08735 24.552148,108.41623 19.916872,91.299902 15.281609,74.183563 54.949472,45.071662 108.46119,26.31796 161.97289,7.5642682 209.16468,6.2353881 213.79995,23.351718 z"
       style="fill:#ffffff;fill-opacity:1;fill-rule:evenodd;stroke:#000000;stroke-width:1.21785891;stroke-miterlimit:4;stroke-opacity:1"
       id="path7381-5-5"
       inkscape:connector-curvature="0" />
    <path
       d="m 168.81325,33.352818 c 2.4943,9.571964 -19.33993,25.984459 -48.73709,36.635036 C 90.678991,80.638409 64.79604,81.513802 62.301723,71.941843 59.807415,62.369874 81.641639,45.957391 111.0388,35.306814 140.43597,24.656245 166.31893,23.780853 168.81325,33.352818 z"
       style="fill:#000080;fill-opacity:1;fill-rule:evenodd;stroke:#000000;stroke-width:0.6748724;stroke-miterlimit:4;stroke-opacity:1"
       id="path7381-5-5-1"
       inkscape:connector-curvature="0" />
    <path
       d="m 121.16115,49.877535 c 0.45993,1.024161 -2.02094,3.165366 -5.55306,4.751573 -3.53218,1.586211 -6.77211,2.042371 -7.2471,0.996682 L 89.623531,13.913446 102.4262,8.1640689 121.16115,49.877535 z"
       style="fill:#ffffff;fill-opacity:1;fill-rule:evenodd;stroke:#000000;stroke-width:1.03737617;stroke-miterlimit:4;stroke-opacity:1"
       id="rect7424"
       inkscape:connector-curvature="0"
       inkscape:transform-center-y="0.42084842"
       inkscape:transform-center-x="0.11347867" />
    <path
       d="M 101.87043,7.6891159 A 2.0000008,7.0000028 65.816246 0 1 89.099123,13.424419 2.0000008,7.0000028 65.816246 1 1 101.87043,7.6891159 z"
       style="fill:#ffffff;fill-opacity:1;fill-rule:evenodd;stroke:#000000;stroke-width:1;stroke-miterlimit:4;stroke-opacity:1;stroke-dasharray:none"
       id="path7452"
       inkscape:connector-curvature="0"
       inkscape:transform-center-x="8.5905029"
       inkscape:transform-center-y="-20.834201" />
    <path
       style="fill:#000000;fill-opacity:1;fill-rule:evenodd;stroke:none"
       d="m 212.75331,18.483157 c -1.21959,0.687478 0.81769,2.263217 0.88844,3.234831 1.37223,2.9494 0.94432,6.546423 0.0911,9.556421 -4.1155,9.709621 -12.51754,16.732925 -20.55202,23.185166 -19.72091,14.608634 -42.28449,25.048752 -65.3093,33.432899 -21.31103,7.529379 -43.344472,13.482296 -65.936559,15.368316 -10.781782,0.38057 -22.016124,1.26722 -32.313485,-2.55471 -5.276541,-1.682528 -9.8944,-8.166084 -10.241088,-14.003776 0.104235,-3.656219 -2.098154,1.540013 -2.886256,3.165422 -2.829518,4.646508 -5.031414,10.968444 -1.71481,15.967264 4.612837,6.70547 13.401729,8.10573 20.916733,9.2255 8.221807,1.10862 16.559026,0.24126 24.813707,-0.0221 24.856112,-2.41359 49.108618,-8.92263 72.523508,-17.440674 25.23001,-9.443907 50.04453,-21.019427 71.48621,-37.503708 7.96054,-6.475261 16.2206,-13.593688 20.11383,-23.363679 2.04235,-4.901705 0.87047,-11.12938 -3.61071,-14.271985 -2.49094,-1.704647 -5.27388,-3.454901 -8.26933,-3.975197 z"
       id="path3185"
       inkscape:connector-curvature="0"
       sodipodi:nodetypes="cccccccccccccccccc" />
    <path
       style="fill:#000000;fill-opacity:1;fill-rule:evenodd;stroke:none"
       d="m 100.03539,6.6259055 c -4.165504,0.6410799 -8.384303,2.5249327 -11.196616,5.7179065 -1.046682,1.527933 1.066415,2.882859 1.324859,4.366971 2.113006,4.453569 4.173505,8.93892 6.090194,13.481552 -17.780594,6.933753 -34.969211,15.604505 -50.817089,26.262132 -9.030049,6.533681 -18.155955,13.708052 -24.00547,23.365191 -2.351172,5.183574 -7.010709,9.100877 -8.611029,14.727595 -1.259396,2.797045 -0.629501,5.904527 -1.264318,8.793277 -2.4448908,5.04886 -4.7272673,11.13335 -2.25527,16.66393 1.382426,1.73948 0.931125,3.64436 0.2800652,5.58271 -1.3320046,4.56873 -0.5033369,9.62922 2.3852538,13.40484 1.058895,2.30718 0.385775,5.04992 1.503513,7.39228 1.945761,3.63036 1.3558,7.99159 2.562806,11.90281 3.455134,14.55998 12.790103,26.96775 23.930918,36.66522 20.810039,18.60617 46.498088,30.34284 71.804173,41.56713 27.22389,12.03127 55.39105,22.11305 81.81464,35.83385 10.02992,5.61807 20.35866,11.73213 27.1103,21.29554 1.06954,1.16299 1.25987,3.5786 2.97285,3.95242 0.87548,-1.08451 -0.70057,-2.56822 -0.83148,-3.75879 -2.69917,-11.61659 0.81172,-23.55851 3.972,-34.71647 8.77609,-28.3851 20.31617,-55.82044 29.56582,-84.0479 7.57551,-23.42035 14.25052,-47.65348 14.03925,-72.46655 -0.18445,-12.832559 -2.74648,-25.910695 -9.55783,-36.934494 -1.57375,-3.156827 -4.31723,-5.690365 -5.7051,-8.888485 -0.75353,-3.612521 -4.09007,-5.880384 -5.54705,-9.112201 -1.02835,-5.199657 -5.29935,-9.020084 -9.7045,-11.561105 -1.3202,-1.848152 -1.76614,-4.297746 -3.56515,-5.877369 -3.16151,-3.678906 -7.79001,-5.397137 -12.11922,-7.164468 -3.04144,-2.086795 -6.00575,-4.44482 -9.62477,-5.490101 -6.6366,-1.755931 -12.63556,-5.455973 -19.5756,-6.115036 -20.41049,-2.295557 -40.96383,1.374348 -60.72566,6.320061 -7.97184,1.93666 -15.80368,4.625679 -23.65756,6.84554 -2.8436,-5.35235 -4.8324,-11.485619 -8.08707,-16.7094979 -0.56799,-0.8195784 -1.46773,-1.4357418 -2.50586,-1.2984886 z m 0.26198,1.1959764 c 1.32965,-0.302892 0.67288,0.9438222 0.057,1.2757081 -2.905814,2.323022 -6.683292,4.046969 -10.433472,4.203003 -0.186877,-1.112755 1.606809,-1.88987 2.357782,-2.562807 2.424942,-1.4855742 5.161055,-2.645777 8.01874,-2.9159041 z m 2.02746,1.5376839 c 6.1906,13.6005892 12.35044,27.2957012 18.01938,41.0846352 -2.718,3.175711 -7.29659,5.120215 -11.49277,4.749735 C 102.77323,41.662997 96.552146,28.085156 90.615653,14.55352 94.86882,13.896514 98.962826,11.985467 102.15398,9.0178582 l 0.163,0.3260081 0.008,0.0157 z m 81.88452,3.0070262 c 8.42753,-0.126507 17.37388,0.61589 24.58016,5.376199 4.55422,2.865899 5.7046,9.052719 3.4968,13.748032 -3.8157,8.820446 -11.42807,15.310444 -18.78751,21.201967 -19.60478,14.811853 -42.13242,25.229588 -65.10168,33.721824 -21.9908,7.858857 -44.792792,13.950706 -68.147876,15.729936 -10.590856,0.76186 -21.659771,0.78126 -31.653508,-3.143709 -4.540985,-1.768897 -8.948743,-6.058866 -8.087078,-11.378861 0.07181,-5.189475 3.575003,-9.507349 6.556233,-13.400486 C 37.8476,61.909712 52.137555,53.263775 66.392106,45.416471 76.138855,40.408057 86.039637,35.425124 96.4019,31.752799 c 1.084633,-0.389264 0.87904,1.729271 1.549075,2.164148 3.233535,7.500666 6.695805,14.904798 10.034815,22.370453 4.83617,0.963415 9.73186,-1.587404 13.2013,-4.840857 1.52704,-1.542469 -0.72844,-3.476975 -0.99096,-5.102832 -2.91199,-6.745136 -6.1132,-13.448527 -8.92995,-20.183525 19.26014,-6.594276 39.25775,-11.502472 59.5824,-13.520228 4.44771,-0.258274 8.90685,-0.26924 13.36077,-0.273366 z m 27.43911,5.809028 c 0.88107,0.297299 1.41552,0.13357 0.74037,0.854269 0.36495,0.902437 -1.25639,-1.25111 -0.74037,-0.854269 z m 14.07835,7.289761 c 5.39347,1.920172 11.33659,5.53491 12.19896,11.709178 0.94693,7.608217 -3.91561,14.348957 -8.49645,19.866846 -12.71706,14.258798 -29.17229,24.667905 -45.80202,33.909875 -30.10183,16.20236 -62.56769,28.18982 -96.007283,35.40894 -17.411222,3.65598 -35.311068,6.04217 -53.112741,4.52193 -7.712924,-1.04338 -16.223935,-2.48265 -21.766769,-8.42878 -4.3325406,-4.86341 -3.0788679,-12.2961 0.03417,-17.49543 2.624585,5.55197 8.818346,8.3072 14.408667,9.94369 10.302669,2.81182 21.126922,2.04798 31.675391,1.66019 25.985373,-2.25404 51.322174,-9.2581 75.768844,-18.130491 23.86798,-9.012889 47.35897,-19.880607 67.90868,-35.150315 7.36574,-5.876666 14.98087,-11.891145 20.18174,-19.832803 3.37248,-5.21918 6.0575,-12.107925 2.81518,-18.039782 l 0.19363,0.05695 z m -1.67437,12.586227 c -1.02237,2.101278 -1.12433,2.109631 -0.0122,-0.0099 l 0.12607,-0.252123 -0.11391,0.261976 z m 15.98053,0.09112 c 4.12234,2.398894 8.11451,6.352749 7.9126,11.503651 0.51273,7.335179 -4.10226,13.727483 -8.46039,19.171042 -12.41331,14.324952 -28.56069,24.85496 -44.87654,34.318077 -27.72673,15.49882 -57.49859,27.27034 -88.18293,35.51558 -19.177839,4.86973 -38.856927,8.94234 -58.762504,8.7098 -9.562687,0.28692 -19.537635,-0.61135 -28.236622,-4.70121 -5.009272,-2.32944 -9.422591,-7.32622 -8.61726,-13.20092 0.129799,-1.78507 0.265542,-3.61844 0.88328,-5.30823 7.821345,6.81692 18.688489,8.30589 28.736971,8.80084 23.688899,0.77102 47.175126,-4.16378 69.854605,-10.53395 30.11456,-8.80814 59.46175,-20.7773 86.31776,-37.06209 13.79333,-8.678915 27.54771,-18.287115 37.33724,-31.516824 3.38904,-4.624172 5.71374,-9.929026 6.09379,-15.695766 z m 10.46764,13.713862 c 4.30583,4.775402 4.10623,12.155702 1.21875,17.654889 -5.82576,11.955539 -16.13577,21.046141 -26.38842,29.238614 -23.9833,18.397475 -51.42114,31.941325 -79.64394,42.520105 -24.88377,9.12908 -50.783758,15.91429 -77.258864,18.12143 -13.059912,0.49592 -26.515668,1.27464 -39.13273,-2.72707 -6.361272,-1.77192 -13.187469,-5.73353 -14.709679,-12.58111 -0.104725,-0.77485 -0.497972,-2.13498 -0.227805,-2.61975 8.887149,6.42905 20.333108,7.76203 31.038409,7.56026 11.275149,0.27872 22.545921,-0.60434 33.634638,-2.6699 34.750461,-6.02886 68.386691,-17.74001 100.045991,-33.16047 21.98901,-11.08334 43.81175,-23.817445 60.63708,-42.087474 4.91271,-5.60553 9.23836,-12.197373 10.2854,-19.727914 l 0.26365,0.251671 0.23752,0.226719 z m 5.09144,8.736323 c 8.93776,10.966253 12.68483,25.326819 13.09879,39.330536 0.94785,24.700939 -5.53036,48.902009 -12.96274,72.220699 -9.2146,28.61632 -20.92907,56.36588 -29.93453,85.05012 -3.29851,10.80979 -6.18664,22.03457 -5.31767,33.44754 -10.41152,-12.03353 -24.96306,-19.22653 -39.05552,-26.00334 -39.34709,-18.32831 -81.20162,-31.6925 -118.318474,-54.39643 -15.366072,-9.65447 -30.514032,-21.20546 -39.563441,-37.18179 -3.68405,-6.62528 -6.479366,-14.12676 -7.061956,-21.61869 7.973944,7.25863 19.176358,9.10805 29.580482,9.92091 29.908262,1.58223 59.592029,-5.05021 87.888739,-14.18275 30.56267,-10.20305 60.2725,-23.88852 86.51506,-42.65188 12.11162,-9.025625 24.2209,-18.974398 31.81762,-32.259302 1.97543,-3.56715 3.40787,-7.631107 3.31364,-11.675623 z M 78.769792,112.54385 c -0.07934,0.0116 -0.102064,-0.30144 0,0 z m 0.02278,0.0456 c 0.03384,-0.0122 0.04123,-0.0366 0,0 z"
       id="path3187"
       inkscape:connector-curvature="0" />
    <path
       style="fill:#000000;fill-opacity:1;fill-rule:evenodd;stroke:none"
       d="m 99.864537,6.5689543 c -4.355858,0.8994435 -9.092854,2.7687861 -11.606666,6.5380037 2.751804,5.524609 5.371763,11.224104 7.69981,16.880352 -9.066775,4.10188 -18.420136,7.849009 -27.220109,12.581043 -15.359124,8.163149 -30.620046,17.310967 -42.374325,30.314643 -4.49406,5.2517 -7.500881,11.484048 -11.492763,17.108157 -2.522737,3.720365 -2.878492,8.251159 -3.462637,12.574837 -1.355589,4.77109 -4.138398,9.60138 -2.9500745,14.79594 0.826677,2.73494 2.1085505,5.54691 1.002342,8.42878 -1.2772489,4.37658 -0.184952,8.99529 2.0046845,12.85959 1.320019,3.24736 1.369642,6.97749 2.710879,10.23984 1.281743,6.83012 2.467879,13.76487 5.554177,20.0691 8.20221,17.80318 23.944214,30.66396 40.091392,41.05781 30.13091,18.96167 63.741073,31.30674 96.338883,45.28707 18.08386,7.91592 36.70568,15.21251 52.78884,26.8064 5.4139,4.03548 10.31118,8.85702 13.57718,14.80732 0.37106,1.04348 2.21098,0.69546 1.46934,-0.45561 -2.28158,-5.00837 -2.00008,-10.8726 -1.66397,-16.28494 1.84924,-15.40519 7.55919,-29.97185 12.50843,-44.59003 11.6299,-33.17758 25.45765,-65.82363 32.3827,-100.42707 2.18018,-10.92848 3.48402,-22.05076 3.05143,-33.20927 0.2952,-14.681746 -4.02712,-29.451402 -12.63206,-41.375843 -2.43926,-3.813726 -4.19662,-7.982853 -7.0389,-11.531877 -1.78764,-3.744801 -3.19841,-7.913554 -6.82156,-10.377735 -2.29198,-1.492522 -4.55476,-3.018211 -5.47991,-5.75086 -2.94696,-5.292031 -8.84397,-7.763542 -14.09911,-10.089579 -3.77119,-2.663633 -7.8062,-4.936454 -12.25793,-6.278212 -7.36183,-2.655466 -14.78356,-5.686573 -22.74633,-5.672345 -25.93061,-1.2384073 -51.35888,5.356408 -75.94756,12.823043 -1.05684,0.155815 -2.60043,1.293223 -2.98688,-0.316547 -2.99248,-5.135669 -4.57852,-11.259348 -8.16681,-16.0830347 -0.5791,-0.5845479 -1.41744,-0.8404276 -2.232493,-0.728976 z m 0.706193,1.3212691 c 0.67934,0.5287576 -0.839366,1.4802345 -1.264316,1.8338304 -2.703549,1.7448912 -5.926571,3.4842662 -9.226103,3.1550992 1.084993,-1.893485 3.710189,-2.82107 5.660955,-3.736002 1.541879,-0.6221706 3.161667,-1.0707431 4.829464,-1.2529276 z m 1.76549,1.7882694 c 6.12626,13.4829072 12.21341,27.0419102 17.72323,40.7657082 -2.66092,3.259602 -7.02219,4.654567 -11.15105,4.601662 C 102.83508,41.651236 96.726605,28.236957 90.991531,14.712984 95.054359,13.7187 98.892593,11.956343 102.16537,9.3481755 l 0.16745,0.3237447 0.003,0.00657 z m 82.59071,2.8475632 c 8.80218,-0.05671 18.45946,0.831054 25.38887,6.731638 3.954,3.761863 3.38794,10.200446 0.65915,14.524815 -6.17839,10.876498 -16.64898,18.402308 -26.79978,25.341063 -24.62632,15.960508 -52.2038,26.999174 -80.40149,34.986733 -17.187701,4.616503 -34.900136,8.082665 -52.784579,8.070775 -7.429609,0.54295 -14.899547,-0.76729 -21.880803,-3.168849 C 23.902857,97.41475 19.582425,92.277965 20.702292,86.585468 22.182119,78.911752 28.094995,73.017233 33.516325,67.791553 46.108646,56.537435 60.929852,48.13978 75.974333,40.700029 c 6.821634,-3.097705 13.610183,-6.596808 20.746494,-8.730815 3.593573,6.813462 6.378933,14.250808 9.744303,21.26577 0.72046,1.449091 1.19491,3.828086 3.33171,3.382733 4.47632,-0.160262 9.13272,-2.165733 11.86864,-5.763467 0.14186,-2.203469 -1.55663,-4.244886 -2.14889,-6.337412 -1.29257,-3.409199 -3.34593,-6.72365 -4.12714,-10.212623 0.98665,-0.375584 0.027,-0.903073 -0.56951,-0.956781 -1.42067,-2.166188 -2.60025,-4.75855 -3.16649,-7.244199 19.39103,-6.373666 39.41136,-11.571003 59.85577,-13.235472 4.46664,-0.261718 8.94369,-0.367323 13.41771,-0.341707 z m 27.02907,5.854589 c 1.05922,-0.02663 0.13414,1.148522 -0.13669,0.03417 0.0553,0.02045 0.0847,-0.05252 0.13669,-0.03417 z m 14.05557,7.369492 c 4.78081,1.917897 10.39312,4.965066 11.48137,10.513202 1.64477,7.90807 -3.428,14.999181 -8.29506,20.660971 -14.4988,16.260806 -33.56504,27.640706 -52.82073,37.525147 -26.62432,13.747953 -55.0884,24.034163 -84.303545,30.726183 -14.164012,3.12268 -28.54145,5.80582 -43.100622,5.7486 -7.451542,0.25928 -14.982769,0.32202 -22.247748,-1.61422 -6.107683,-1.3033 -12.972033,-3.96852 -15.727437,-10.05731 -1.6212446,-4.57576 -0.569934,-9.74197 1.742709,-13.89611 4.328514,7.38268 13.299704,9.7361 21.185867,11.03715 13.111658,1.07304 26.390847,0.71527 39.371665,-1.51462 34.081881,-5.40981 67.083731,-16.8621 97.886171,-32.275895 18.21486,-9.43248 36.1871,-20.498643 49.54914,-36.297037 3.8027,-4.716473 6.9885,-10.577635 6.09831,-16.842839 0.0506,-1.264823 -0.69309,-2.719018 -0.82009,-3.713222 z m 14.26059,12.791252 c 3.99909,2.270308 7.74604,6.323386 7.36949,11.276348 0.4527,9.033494 -5.88666,16.289105 -11.55098,22.565589 -14.28971,14.636928 -31.89043,25.435808 -49.78212,35.088214 -31.52862,16.41393 -65.36553,28.68204 -100.248998,35.67791 -10.872688,2.14252 -21.875277,3.8272 -32.986166,3.75879 -7.994327,0.0934 -16.118397,0.84185 -23.945677,-1.23786 -6.723138,-1.38779 -14.439742,-4.07398 -17.412325,-10.86998 -1.168652,-3.20346 -0.92554,-7.22847 0.136683,-10.29679 5.43632,4.32138 12.207943,6.68433 19.073993,7.6669 9.956756,1.25666 20.073217,0.9211 30.06355,0.22655 34.083163,-3.72944 67.15914,-14.07959 98.5055,-27.72417 22.32256,-10.071347 44.23758,-21.821898 62.80088,-37.947074 8.22293,-7.422967 16.32788,-16.417638 17.86227,-27.831329 -0.0666,0.041 0.0533,-0.331368 0.1139,-0.353098 z m 9.98925,13.121569 c 4.60152,5.294116 3.99847,13.391472 0.67203,19.169792 -7.91269,14.192953 -21.03619,24.656661 -34.07627,33.95784 -27.60126,19.12696 -58.58904,32.95843 -90.61281,42.84662 -18.34564,5.47174 -37.146924,9.85501 -56.27866,11.39931 -10.001978,0.33761 -20.076544,0.85453 -30.048054,-0.1913 -8.061205,-1.44105 -17.08491,-2.87854 -22.564088,-9.5792 -1.811385,-1.98091 -2.869406,-4.88592 -2.824782,-7.40366 4.174635,2.56529 8.761054,4.6169 13.577179,5.63817 9.142896,2.30452 18.687681,1.39324 28.020018,1.41239 14.996229,-0.34792 29.750847,-3.57467 44.309057,-6.95481 34.38373,-8.58587 67.82552,-21.6477 98.58236,-39.35943 16.4396,-9.772984 32.53103,-21.029683 44.47821,-36.162566 3.42692,-4.314792 5.41699,-9.521397 6.74303,-14.784546 l 0.0228,0.01139 z m 5.59261,9.727274 c 5.04483,5.987828 8.34161,13.729743 10.29407,21.391398 3.20307,11.964243 2.34075,24.48728 1.63543,36.70902 -2.45731,22.55352 -9.24078,44.32678 -16.6044,65.69752 -9.0631,26.02342 -19.45283,51.60991 -27.21046,78.07023 -2.47774,8.0988 -3.75979,16.51414 -3.74814,24.98914 0.47766,3.42334 -1.83358,-0.31648 -3.04779,-1.25061 C 204.79144,274.7607 188.44681,267.86219 172.86226,260.66288 138.33369,245.18157 102.33612,232.65652 69.429786,213.81457 52.509964,203.88139 35.756998,192.08323 25.064758,175.29274 c -4.212637,-6.91695 -7.491196,-14.72244 -8.20098,-22.88301 0.739403,-0.51523 2.638122,1.96576 3.975197,2.4489 8.494306,5.05703 18.678913,6.33001 28.407286,6.68608 13.840147,0.2604 27.712346,-0.6027 41.323831,-3.20066 32.236118,-5.77836 63.401528,-16.85648 92.682468,-31.41431 21.00552,-10.76741 41.58035,-23.2376 58.1928,-40.23037 5.91847,-6.459071 12.06655,-13.580751 13.88471,-22.393233 0.17564,-0.95439 0.12081,-2.030873 0.52395,-2.915905 z"
       id="path3189"
       inkscape:connector-curvature="0" />
  </g>
</svg>
